<svg width="66" height="62" viewBox="0 0 66 62" fill="none" xmlns="http://www.w3.org/2000/svg">
<path d="M27.9871 28.8331C28.3563 28.2564 28.1151 26.3719 28.1151 26.3719C14.226 21.5879 3.83523 15.5901 4.42368 13.1525C4.7135 11.9477 5.11512 11.4195 5.39317 11.3268C6.01546 11.1238 7.42041 11.8609 9.14165 12.9951L12.0031 9.6351C10.6496 8.8039 7.31301 6.05879 4.0353 7.12682C2.69656 7.55932 0.935601 8.7774 0.132356 12.1198C-1.75071 19.9461 16.9182 27.0104 26.9323 30.4851C26.9308 30.4866 27.6178 29.4112 27.9871 28.8331Z" fill="#24B794"/>
<path d="M60.4817 13.6629C60.0227 13.0171 59.5431 12.386 59.04 11.7784C53.5203 5.15692 45.2171 0.93335 35.9416 0.93335C35.9254 0.93335 35.9121 0.934819 35.8974 0.934819C35.8871 0.934819 35.8783 0.93335 35.8695 0.93335C35.8356 0.93335 35.8018 0.93776 35.7665 0.93776C26.563 0.99072 18.3305 5.20105 12.846 11.7799C12.34 12.3874 11.8604 13.0171 11.4043 13.6629C11.0571 14.1542 10.7335 14.6647 10.4142 15.1767C11.0424 15.5739 11.753 15.9961 12.5459 16.4404C12.8196 16.0034 13.0932 15.565 13.3904 15.1443C15.2602 16.3933 17.4198 17.4834 19.8104 18.3837C19.678 18.8618 19.578 19.3649 19.4603 19.8548C20.1915 20.174 20.9609 20.4947 21.745 20.814C21.8686 20.2623 21.9804 19.7047 22.1216 19.1707C25.9186 20.3344 30.185 21.0332 34.7102 21.142V24.277L34.8632 24.3741L35.078 25.6628L35.4105 27.637L37.1758 28.0945V21.142C38.0526 21.1214 38.9074 21.0596 39.7592 20.9964L40.405 19.1663L40.6536 18.4602C39.515 18.569 38.3586 18.6485 37.1758 18.6764V3.50927C42.1836 4.28307 46.4956 9.4687 48.9465 16.892C47.7607 17.2436 46.5073 17.529 45.226 17.782C46.063 18.2027 46.8957 18.8544 47.4871 19.7768C48.2094 19.5974 48.9362 19.4208 49.6335 19.2105C50.5544 22.7176 51.0885 26.6175 51.112 30.7455H47.2885C47.2488 30.9955 47.2091 31.2309 47.1664 31.4928C48.664 32.1077 50.4441 32.8403 50.8295 32.9992C51.9726 33.4714 52.8259 34.182 53.3967 35.047C53.4452 34.4379 53.4982 33.8318 53.5262 33.211H59.446C59.3416 33.976 59.243 34.7454 59.1077 35.481C59.4828 35.2882 59.8109 34.9116 59.9815 34.2026C60.0742 33.8201 60.0845 33.5008 60.0654 33.211H63.4476C63.0445 38.2658 61.2659 42.9307 58.4986 46.8527C56.5964 45.5831 54.3927 44.4709 51.9476 43.5633C52.0815 43.0748 52.1918 42.5673 52.3095 42.0657C51.5269 42.6791 50.5456 43.0219 49.4364 43.0219C48.9509 43.0219 48.5419 42.9586 48.2668 42.9204L48.183 42.9042C47.8887 42.8836 47.4753 42.8498 44.9744 41.9936C45.2686 41.5964 45.6187 41.0771 46.0027 40.471V39.2382C47.1649 39.6369 48.155 39.959 48.3874 39.9752C49.0303 40.0193 50.681 40.5843 51.1547 38.6203C51.6298 36.6549 50.3956 36.0062 49.71 35.7208C49.3202 35.5633 47.5106 34.819 46.0027 34.1982V31.7017L45.1436 33.8451C44.3962 33.5376 43.8593 33.317 43.8593 33.317C43.8593 33.317 45.7217 23.0456 45.2127 21.7452C44.7037 20.4447 43.1781 20.149 43.1781 20.149L39.1207 31.6414L34.7102 30.5012L32.8227 30.0114L32.1769 26.1526L30.1188 24.836C30.1173 24.836 30.2394 28.0165 29.9363 29.7319C29.879 30.0555 29.8054 30.3277 29.7142 30.5145C29.6804 30.5866 29.6186 30.6734 29.5686 30.7528C29.3538 31.1088 29.0169 31.534 28.6432 31.965C28.6417 31.9679 28.6388 31.9679 28.6373 31.9709C28.4608 32.1754 28.2754 32.3769 28.0915 32.574C28.0709 32.5976 28.0518 32.6182 28.0312 32.6402C27.8561 32.8241 27.684 33.0036 27.5178 33.1713C26.9573 33.7436 26.5086 34.1658 26.5086 34.1658L28.3078 35.4957L31.303 33.211H31.3045L31.9827 32.6917L33.0581 33.211L35.7841 34.5218L37.1714 35.1912L37.4818 35.3412L32.9595 46.6158C32.9595 46.6158 34.4425 47.9472 35.5576 47.088C36.6742 46.2289 41.4304 37.6053 41.4304 37.6053C41.4304 37.6053 42.2616 37.9098 43.3517 38.304L43.0987 38.9351C43.2458 38.9307 43.3855 38.9131 43.5341 38.9101V41.4963C43.4253 41.4581 43.3238 41.4213 43.209 41.3816C43.0501 41.3581 42.8824 41.3448 42.725 41.3213C42.2395 42.1789 41.7952 42.9469 41.3951 43.628C44.0667 43.9266 46.6147 44.418 48.9509 45.1079C46.4985 52.5341 42.1807 57.7154 37.1729 58.4906V49.5374C36.4476 50.042 35.6032 50.3201 34.7073 50.3201V58.5083C29.648 57.8139 25.2772 52.6209 22.7998 45.1476C25.3228 44.3871 28.0945 43.8545 31.0147 43.5647L32.0386 41.0094C28.5034 41.2816 25.1492 41.898 22.1069 42.8321C21.3287 39.8752 20.8314 36.6314 20.6784 33.2125H23.2235L23.8708 32.6064C21.8583 31.9165 19.959 31.225 18.1701 30.5263C18.1686 30.5998 18.1628 30.6719 18.1628 30.744H8.34727C8.36051 29.2155 8.50763 27.7194 8.7636 26.26C7.97066 25.8334 7.21596 25.4068 6.50393 24.9772C6.10525 26.925 5.8728 28.933 5.8728 30.9985C5.8728 37.4523 7.92505 43.4309 11.3984 48.3326C11.856 48.9784 12.3356 49.6095 12.8402 50.2156C18.3261 56.7944 26.5571 61.0048 35.7606 61.0577C35.7959 61.0577 35.8297 61.0621 35.8636 61.0621C35.8724 61.0621 35.8812 61.0607 35.8915 61.0607C35.9092 61.0607 35.9224 61.0621 35.9357 61.0621C45.2112 61.0621 53.5144 56.8386 59.0341 50.2186C59.5402 49.611 60.0198 48.9799 60.4744 48.3355C63.9477 43.4309 66 37.4537 66 30.9985C66.0059 24.5477 63.9551 18.5661 60.4817 13.6629ZM20.5092 16.0829C18.3893 15.2914 16.4812 14.3381 14.8365 13.2598C18.0613 9.429 22.3055 6.47797 27.1529 4.84504C24.3901 7.51069 22.0937 11.4077 20.5092 16.0829ZM34.7073 18.6779C30.4145 18.5735 26.3732 17.9262 22.8057 16.8552C25.2831 9.382 29.6465 4.18451 34.7073 3.49014V18.6779ZM8.43995 33.2125H18.2128C18.3731 36.9065 18.9322 40.4121 19.809 43.6162C17.4184 44.5136 15.2573 45.6081 13.3904 46.8541C10.6231 42.9307 8.84305 38.2673 8.43995 33.2125ZM14.8439 48.7357C16.4871 47.6603 18.3923 46.7085 20.5078 45.917C22.0907 50.5952 24.3901 54.4892 27.1544 57.1534C22.3055 55.5205 18.0716 52.5665 14.8439 48.7357ZM44.508 57.2299C47.315 54.5525 49.6482 50.6128 51.2459 45.8714C53.4129 46.6717 55.3607 47.6382 57.0378 48.7357C53.763 52.6238 49.4481 55.6117 44.508 57.2299ZM44.508 4.77001C49.4467 6.38824 53.7659 9.3717 57.0422 13.2613C55.6019 14.2043 53.9498 15.0428 52.1447 15.771C52.0609 15.7475 52.002 15.7342 52.002 15.7342L51.9653 15.8431C51.7255 15.9387 51.4916 16.0387 51.2444 16.1299C49.6453 11.39 47.315 7.44744 44.508 4.77001ZM53.5732 30.7469C53.5526 26.3527 52.9656 22.188 51.9432 18.4337C54.3838 17.526 56.5891 16.4168 58.4913 15.1472C61.6101 19.5723 63.4785 24.9419 63.5314 30.7469H53.5732Z" fill="#24B794"/>
</svg>
