<svg width="51" height="66" viewBox="0 0 51 66" fill="none" xmlns="http://www.w3.org/2000/svg">
<path d="M0 39.3259C0 54.0335 11.4361 66.0001 25.5 66.0001C28.8494 66.0024 32.1663 65.3141 35.2611 63.9745C38.356 62.6348 41.168 60.6701 43.5363 58.1927C45.9047 55.7153 47.7829 52.7739 49.0636 49.5365C50.3443 46.2992 51.0023 42.8295 51 39.3259C50.9997 39.0329 50.8882 38.752 50.6902 38.5448C50.4921 38.3376 50.2235 38.221 49.9434 38.2207H1.0566C0.77647 38.221 0.507912 38.3376 0.309833 38.5448C0.111754 38.752 0.000328979 39.0329 0 39.3259H0ZM48.8632 40.4312C48.7921 42.0899 48.5602 43.7367 48.1708 45.3463H2.83168C2.44009 43.7371 2.20725 42.0901 2.13681 40.4312H48.8632ZM3.0691 46.2565H47.9321C46.5023 51.3196 43.545 55.7631 39.502 58.9231C35.4589 62.0832 30.547 63.7903 25.5 63.7896C14.9042 63.7896 5.93309 56.3805 3.0691 46.2565Z" fill="#24B794"/>
<path d="M32.8514 58.8873C35.2359 57.8117 37.3556 56.1835 39.0505 54.1257C39.1258 54.0341 39.2328 53.9776 39.348 53.9686C39.4632 53.9595 39.577 53.9987 39.6646 54.0775C39.7521 54.1563 39.8061 54.2683 39.8147 54.3887C39.8234 54.5092 39.7859 54.6283 39.7106 54.7199C37.9268 56.8827 35.6971 58.5939 33.1895 59.7247C33.1352 59.7487 33.0769 59.7611 33.018 59.7611C32.9176 59.7613 32.8202 59.7253 32.7424 59.659C32.6645 59.5928 32.6109 59.5004 32.5907 59.3975C32.5706 59.2947 32.585 59.1877 32.6316 59.0947C32.6782 59.0017 32.7541 58.9285 32.8464 58.8873H32.8514Z" fill="#24B794"/>
<path d="M47.0396 14.324C49.0844 12.0654 48.5611 8.73277 48.5375 8.60274C48.5056 8.41029 48.4255 8.23011 48.3054 8.08056C48.1854 7.931 48.0295 7.8174 47.8538 7.75133C47.6781 7.68526 47.4888 7.66908 47.3051 7.70444C47.1215 7.73979 46.9501 7.82542 46.8084 7.9526L42.1693 12.1148L43.5752 4.82281C43.6127 4.62829 43.5995 4.42679 43.5369 4.23948C43.4743 4.05216 43.3646 3.88593 43.2194 3.75824C43.0742 3.63055 42.8988 3.54611 42.7116 3.51379C42.5244 3.48146 42.3324 3.50244 42.1556 3.57453C42.0164 3.63044 38.7211 5.00485 37.805 8.29327C37.3848 9.79381 37.529 11.4062 38.2301 13.1043C37.3248 12.956 36.399 13.0267 35.524 13.3111C33.9987 13.8312 32.8303 15.0327 32.0521 16.8778C31.8156 17.4555 31.6142 18.0483 31.4492 18.6527C31.4492 18.6657 31.4418 18.68 31.438 18.693C30.2758 22.8461 29.607 29.8104 29.7338 33.472C29.7522 34.0741 29.9334 34.6584 30.2564 35.1572C30.5793 35.6559 31.0309 36.0486 31.5586 36.2898C31.95 36.4715 32.3734 36.5659 32.8017 36.5667C33.5259 36.566 34.2261 36.2954 34.7769 35.8035C36.3817 34.3809 38.5844 31.9897 40.5272 29.5621C42.0326 27.6793 43.2694 25.9213 44.1035 24.478C44.414 23.9508 44.6922 23.4036 44.9364 22.8396C45.7157 20.9958 45.7767 19.2846 45.1178 17.7542C44.8393 17.1184 44.4555 16.5391 43.9842 16.043C45.2384 15.7569 46.2602 15.1848 47.0396 14.324ZM40.0014 16.0144L40.0338 16.0313L40.071 16.0508L40.1046 16.0677H40.1146L40.1382 16.0768L40.1804 16.0937L40.2028 16.1028C40.2451 16.1171 42.4403 16.8908 43.1973 18.6709C43.6001 19.6162 43.5379 20.6876 43.0059 21.9463C42.8517 22.3023 42.6795 22.6496 42.49 22.9865L40.7311 22.0048C40.6806 21.9746 40.6248 21.9552 40.567 21.9479C40.5093 21.9406 40.4507 21.9455 40.3948 21.9623C40.3388 21.9791 40.2867 22.0075 40.2414 22.0458C40.1962 22.084 40.1587 22.1314 40.1313 22.1851C40.1038 22.2388 40.0869 22.2977 40.0816 22.3583C40.0763 22.4189 40.0827 22.48 40.1004 22.538C40.1181 22.596 40.1467 22.6497 40.1846 22.6959C40.2225 22.7421 40.2688 22.7799 40.3209 22.8071L42.0376 23.7654C41.1127 25.2425 40.1023 26.659 39.012 28.0069L35.6296 26.3777C35.5248 26.3272 35.405 26.3223 35.2968 26.3641C35.1885 26.4059 35.1005 26.491 35.0522 26.6007C35.0039 26.7103 34.9992 26.8356 35.0392 26.9488C35.0792 27.0621 35.1606 27.1541 35.2654 27.2047L38.4302 28.7364C36.6899 30.865 34.803 32.8895 33.4133 34.1209C33.2769 34.2423 33.1106 34.321 32.9335 34.348C32.7563 34.375 32.5755 34.3492 32.4117 34.2736C32.2479 34.198 32.1078 34.0756 32.0075 33.9205C31.9072 33.7653 31.8507 33.5838 31.8445 33.3966C31.7289 30.0692 32.3007 23.8876 33.3126 19.8944L36.6875 21.4795C36.7433 21.5061 36.8039 21.5198 36.8652 21.5198C36.9647 21.5198 37.0612 21.4841 37.1386 21.4187C37.216 21.3534 37.2696 21.2622 37.2905 21.1605C37.3115 21.0587 37.2984 20.9526 37.2536 20.8597C37.2088 20.7668 37.1349 20.6927 37.0442 20.6499L33.5537 19.0102C33.6748 18.5922 33.818 18.1816 33.9826 17.7802C34.5146 16.5215 35.2256 15.7517 36.1679 15.4267C37.9454 14.8064 39.9803 15.9936 40.0014 16.0079V16.0144ZM41.0058 6.97608L40.0487 11.9354C39.6534 10.8405 39.5776 9.83672 39.8262 8.93302C40.048 8.18164 40.4548 7.50452 41.0058 6.96958V6.97608ZM46.2938 11.3294C46.1442 11.8836 45.8706 12.3926 45.4957 12.8144C44.9985 13.3631 44.3053 13.7276 43.4161 13.9079L46.2938 11.3294Z" fill="#24B794"/>
<path d="M19.1331 19.7137C17.5718 15.6828 14.0291 13.0289 10.4181 13.0289H10.3174C10.3062 12.9977 10.2937 12.9652 10.2813 12.934C9.57154 11.1175 7.42851 10.3061 5.49556 11.1253C4.60578 11.4923 3.8711 12.1805 3.42464 13.0653C3.20141 13.498 3.07159 13.9767 3.04432 14.4675C3.01704 14.9584 3.09298 15.4496 3.26677 15.9064C3.41147 16.2818 3.6223 16.6254 3.88829 16.9194C2.33572 19.5863 2.11321 23.1828 3.35627 26.4024C4.91879 30.4333 8.41301 33.0819 12.0427 33.0884C12.6071 34.0598 13.6674 34.6228 14.8135 34.6228C15.2995 34.622 15.7807 34.5226 16.2306 34.3302C18.0057 33.5786 18.9218 31.5996 18.2729 29.93C18.2543 29.8845 18.2356 29.839 18.2157 29.7935C20.1201 27.0798 20.493 23.2232 19.1331 19.7137ZM16.1187 28.9873C15.9372 29.1959 15.839 29.4693 15.8443 29.7514C15.8496 30.0334 15.958 30.3025 16.1473 30.5035C16.2179 30.5779 16.2737 30.6663 16.3114 30.7635C16.519 31.2979 16.1175 31.9949 15.4412 32.2849C14.765 32.5748 14.0055 32.3668 13.7979 31.8311C13.784 31.7908 13.7728 31.7495 13.7644 31.7075C13.7079 31.4438 13.5609 31.211 13.3513 31.053C13.1417 30.8951 12.8839 30.8231 12.627 30.8506C9.64363 31.1666 6.64414 28.9964 5.31905 25.5754C4.2003 22.6939 4.53841 19.4744 6.17551 17.3745C6.27724 17.244 6.34914 17.091 6.38574 16.9271C6.42234 16.7632 6.42266 16.5927 6.38669 16.4287C6.35072 16.2646 6.2794 16.1113 6.17817 15.9805C6.07695 15.8496 5.94849 15.7447 5.8026 15.6737C5.54648 15.5585 5.34199 15.3456 5.23079 15.0782C5.17521 14.9157 5.15344 14.7426 5.16695 14.5706C5.18045 14.3986 5.22892 14.2317 5.3091 14.0808C5.52295 13.6633 5.87329 13.3402 6.29609 13.1706C7.13391 12.8144 8.06371 13.0848 8.326 13.7597C8.3758 13.8929 8.39906 14.0354 8.39436 14.1784C8.39026 14.3397 8.42004 14.5001 8.48161 14.6481C8.54318 14.7962 8.63504 14.9283 8.75072 15.0352C8.8664 15.142 9.00308 15.2211 9.15113 15.2667C9.29918 15.3123 9.45499 15.3234 9.60758 15.2992C9.88239 15.2555 10.16 15.2338 10.4379 15.2342C13.2 15.2342 15.9434 17.3459 17.1815 20.5394C18.35 23.5768 17.9348 26.8913 16.1187 28.9873Z" fill="#24B794"/>
<path d="M14.7924 27.5439C14.7329 27.575 14.6674 27.591 14.6009 27.5907C14.5029 27.5903 14.4078 27.5552 14.3312 27.4911C14.2546 27.427 14.201 27.3378 14.179 27.2378C14.1569 27.1379 14.1678 27.0331 14.2099 26.9404C14.252 26.8477 14.3228 26.7727 14.4107 26.7274C14.999 26.4236 15.448 25.8882 15.6594 25.2386C15.8707 24.5889 15.8272 23.8781 15.5382 23.2621C15.4896 23.1539 15.4837 23.0301 15.5217 22.9174C15.5596 22.8046 15.6385 22.7121 15.7412 22.6596C15.8438 22.6072 15.9621 22.5991 16.0704 22.6372C16.1788 22.6752 16.2684 22.7563 16.3201 22.8629C16.513 23.2759 16.6264 23.7245 16.6535 24.1833C16.6807 24.6421 16.6212 25.102 16.4784 25.5367C16.3356 25.9714 16.1123 26.3724 15.8213 26.7168C15.5303 27.0612 15.1773 27.3423 14.7824 27.5439H14.7924Z" fill="#24B794"/>
<path d="M24.5043 34.4224C24.5041 34.8378 24.6216 35.244 24.8421 35.5896C25.0626 35.9351 25.3762 36.2045 25.743 36.3636C26.1099 36.5227 26.5137 36.5644 26.9032 36.4834C27.2927 36.4024 27.6506 36.2024 27.9314 35.9086C28.2122 35.6148 28.4035 35.2405 28.4809 34.8331C28.5583 34.4256 28.5184 34.0032 28.3663 33.6195C28.2142 33.2357 27.9567 32.9077 27.6264 32.6771C27.2961 32.4464 26.9078 32.3235 26.5106 32.3237C25.9788 32.3248 25.4691 32.5462 25.0931 32.9396C24.717 33.3329 24.5053 33.8661 24.5043 34.4224ZM25.3745 34.4224C25.3745 34.187 25.4412 33.957 25.5662 33.7613C25.6913 33.5656 25.869 33.4131 26.0769 33.3231C26.2848 33.2331 26.5135 33.2096 26.7342 33.2556C26.9549 33.3016 27.1575 33.415 27.3166 33.5816C27.4756 33.7481 27.5838 33.9602 27.6276 34.1911C27.6713 34.422 27.6486 34.6612 27.5623 34.8786C27.476 35.096 27.3301 35.2817 27.1429 35.4123C26.9557 35.5429 26.7356 35.6124 26.5106 35.6122C26.2092 35.6118 25.9202 35.4863 25.7072 35.2632C25.4941 35.0401 25.3745 34.7377 25.3745 34.4224Z" fill="#24B794"/>
<path d="M16.3934 7.67158C16.3934 7.18666 16.256 6.71263 15.9985 6.3094C15.741 5.90617 15.375 5.59185 14.9467 5.40616C14.5185 5.22047 14.0472 5.17176 13.5925 5.26617C13.1378 5.36058 12.7201 5.59389 12.3921 5.9366C12.0642 6.2793 11.8407 6.71602 11.7499 7.19156C11.6592 7.6671 11.7053 8.1601 11.8823 8.60825C12.0594 9.0564 12.3595 9.43959 12.7447 9.70937C13.1299 9.97915 13.5829 10.1234 14.0465 10.1239C14.6685 10.1239 15.2651 9.86564 15.7051 9.40581C16.1452 8.94598 16.3927 8.32222 16.3934 7.67158ZM15.5232 7.67158C15.5235 7.97653 15.4373 8.27471 15.2756 8.52843C15.1138 8.78215 14.8838 8.98001 14.6146 9.09701C14.3454 9.21401 14.049 9.24488 13.7631 9.18574C13.4771 9.12659 13.2142 8.98008 13.0078 8.76472C12.8014 8.54936 12.6607 8.27482 12.6035 7.97581C12.5462 7.6768 12.575 7.36674 12.6861 7.08483C12.7973 6.80292 12.9859 6.56181 13.228 6.39199C13.4701 6.22217 13.755 6.13125 14.0465 6.13074C14.4376 6.13039 14.8129 6.2925 15.0898 6.58142C15.3667 6.87035 15.5226 7.26246 15.5232 7.67158Z" fill="#24B794"/>
<path d="M50.2579 27.964C50.2581 27.4406 50.11 26.929 49.8321 26.4938C49.5543 26.0586 49.1593 25.7195 48.6971 25.5192C48.2349 25.3189 47.7263 25.2666 47.2357 25.3688C46.745 25.471 46.2944 25.7232 45.9408 26.0934C45.5873 26.4637 45.3466 26.9353 45.2494 27.4486C45.1522 27.9619 45.2027 28.4939 45.3946 28.9772C45.5865 29.4605 45.9111 29.8733 46.3274 30.1635C46.7437 30.4537 47.233 30.6082 47.7333 30.6074C48.4028 30.6057 49.0443 30.3266 49.5175 29.8311C49.9907 29.3357 50.2569 28.6643 50.2579 27.964ZM49.3878 27.964C49.3878 28.3072 49.2904 28.6427 49.108 28.928C48.9257 29.2134 48.6665 29.4357 48.3633 29.5669C48.06 29.698 47.7264 29.7322 47.4047 29.6649C47.0829 29.5977 46.7874 29.4321 46.5557 29.1891C46.3239 28.9461 46.1663 28.6367 46.1027 28.3C46.0392 27.9632 46.0725 27.6143 46.1986 27.2975C46.3247 26.9806 46.5378 26.7099 46.811 26.5198C47.0842 26.3297 47.4051 26.2286 47.7333 26.2294C48.1723 26.2307 48.5929 26.4141 48.903 26.7392C49.2131 27.0643 49.3874 27.5047 49.3878 27.964Z" fill="#24B794"/>
<path d="M3.1648 33.5188C3.16455 33.8102 3.24694 34.0952 3.40155 34.3376C3.55615 34.5801 3.77602 34.7691 4.03335 34.8808C4.29068 34.9925 4.57389 35.0219 4.84717 34.9652C5.12045 34.9085 5.37152 34.7683 5.56861 34.5623C5.7657 34.3563 5.89996 34.0938 5.9544 33.808C6.00885 33.5222 5.98103 33.2259 5.87447 32.9566C5.76791 32.6874 5.58739 32.4572 5.35576 32.2952C5.12412 32.1333 4.85178 32.0469 4.57318 32.0469C4.19997 32.0472 3.84212 32.2024 3.5781 32.4783C3.31409 32.7542 3.16545 33.1284 3.1648 33.5188ZM4.03493 33.5188C4.03493 33.4074 4.0665 33.2986 4.12564 33.206C4.18479 33.1134 4.26885 33.0412 4.3672 32.9986C4.46555 32.956 4.57377 32.9449 4.67818 32.9666C4.78259 32.9883 4.8785 33.0419 4.95377 33.1207C5.02904 33.1994 5.08031 33.2997 5.10108 33.409C5.12184 33.5182 5.11118 33.6314 5.07045 33.7343C5.02971 33.8371 4.96072 33.9251 4.87221 33.9869C4.78369 34.0488 4.67963 34.0818 4.57318 34.0818C4.43043 34.0818 4.29352 34.0225 4.19258 33.9169C4.09164 33.8113 4.03493 33.6681 4.03493 33.5188Z" fill="#24B794"/>
<path d="M35.2257 4.26497C35.2257 3.97354 35.1431 3.68866 34.9883 3.44636C34.8334 3.20406 34.6134 3.01523 34.356 2.90377C34.0986 2.7923 33.8153 2.7632 33.5421 2.82015C33.2689 2.8771 33.0179 3.01754 32.821 3.22371C32.6241 3.42987 32.49 3.6925 32.4358 3.97836C32.3816 4.26422 32.4097 4.56048 32.5165 4.82966C32.6233 5.09883 32.804 5.32883 33.0358 5.49055C33.2675 5.65227 33.54 5.73846 33.8186 5.7382C34.1918 5.73751 34.5495 5.58204 34.8133 5.30586C35.077 5.02969 35.2254 4.65537 35.2257 4.26497ZM34.3556 4.26497C34.3556 4.37639 34.324 4.48529 34.2648 4.57791C34.2056 4.67053 34.1214 4.74269 34.023 4.78526C33.9246 4.82784 33.8163 4.83891 33.7119 4.81708C33.6074 4.79525 33.5115 4.7415 33.4363 4.66263C33.3611 4.58376 33.3099 4.48332 33.2893 4.37402C33.2686 4.26471 33.2795 4.15147 33.3204 4.04861C33.3613 3.94576 33.4305 3.85791 33.5192 3.7962C33.6079 3.73449 33.7121 3.70169 33.8186 3.70195C33.9611 3.70229 34.0977 3.76176 34.1983 3.86732C34.299 3.97287 34.3556 4.11588 34.3556 4.26497Z" fill="#24B794"/>
<path d="M26.8027 20.3117C28.7146 17.6669 30.8016 13.6035 29.8333 9.27358C29.0303 5.65358 26.2446 2.5732 21.5571 0.116953C21.4309 0.051147 21.2933 0.0123988 21.1526 0.0029872C21.0119 -0.0064244 20.8708 0.0136905 20.7376 0.0621493C20.6044 0.110608 20.4818 0.186432 20.3771 0.285164C20.2723 0.383896 20.1875 0.503543 20.1275 0.637069C18.7602 3.67974 17.5544 6.68731 17.89 10.0225C18.2704 13.8428 20.6596 17.3536 25.1942 20.7564C25.2805 20.821 25.3756 20.8714 25.4764 20.906C25.3248 23.3219 24.8686 25.3893 24.1401 26.9367C24.1148 26.9903 24.0998 27.0486 24.096 27.1083C24.0923 27.168 24.0998 27.2278 24.1181 27.2845C24.1365 27.3411 24.1653 27.3934 24.203 27.4384C24.2407 27.4833 24.2865 27.5201 24.3378 27.5465C24.3978 27.577 24.4637 27.593 24.5304 27.5933C24.6116 27.5932 24.6911 27.5694 24.7601 27.5247C24.829 27.4799 24.8847 27.4158 24.9208 27.3398C25.7151 25.6494 26.2061 23.409 26.3565 20.8032C26.4677 20.7335 26.5655 20.6427 26.6449 20.5354C26.6971 20.4652 26.7518 20.391 26.8065 20.3143L26.8027 20.3117ZM26.3378 17.0714C26.1427 13.913 25.5013 10.7923 24.5491 8.52332C24.5268 8.46752 24.4942 8.41692 24.453 8.37448C24.4119 8.33203 24.3631 8.29858 24.3094 8.27609C24.2558 8.2536 24.1984 8.24251 24.1406 8.24348C24.0828 8.24444 24.0258 8.25744 23.9729 8.28171C23.9199 8.30598 23.8722 8.34104 23.8323 8.38484C23.7925 8.42864 23.7614 8.4803 23.7409 8.53681C23.7203 8.59331 23.7108 8.65353 23.7127 8.71395C23.7147 8.77437 23.7281 8.83377 23.7523 8.8887C24.7791 11.3384 25.4292 14.8258 25.5199 18.2508C22.0903 15.4734 20.278 12.7011 19.9883 9.7911C19.7484 7.37516 20.5465 5.01384 21.5757 2.62521C25.0898 4.66276 27.1757 7.06439 27.7785 9.77679C28.3628 12.3956 27.4989 14.9844 26.3378 17.0714Z" fill="#24B794"/>
</svg>
