<svg width="48" height="60" viewBox="0 0 48 60" fill="none" xmlns="http://www.w3.org/2000/svg">
<path d="M17.4088 51.635C11.6217 49.8355 7.73334 44.5507 7.73334 38.4843C7.73334 35.5191 8.66162 32.694 10.418 30.3145C10.458 30.2602 10.4942 30.2009 10.5244 30.1405C10.8146 29.5602 10.5789 28.8554 9.99853 28.5652C9.47324 28.3022 8.84491 28.4711 8.51523 28.9357C6.46657 31.7187 5.38367 35.0202 5.38367 38.4843C5.38367 41.9923 6.49136 45.3277 8.5869 48.1295C10.6124 50.8378 13.4976 52.8796 16.7112 53.8788C16.8274 53.915 16.9449 53.9321 17.0604 53.9321C17.5612 53.9321 18.0254 53.6091 18.1819 53.1057C18.3746 52.4861 18.0285 51.8276 17.4088 51.635V51.635Z" fill="#24B794"/>
<path d="M47.5251 27.4548C47.5251 25.2184 46.8281 23.0877 45.5092 21.2909L38.072 10.2503C37.8536 9.9261 37.4884 9.73177 37.0975 9.73177C36.7066 9.73177 36.3415 9.9261 36.123 10.2503L32.9891 14.9025L23.2993 0.518481C23.081 0.194328 22.7157 0 22.325 0C21.9342 0 21.5689 0.194328 21.3506 0.518481L4.71693 25.2104C1.9416 28.982 0.474976 33.4555 0.474976 38.15C0.474976 50.1981 10.2769 60 22.325 60C34.373 60 44.175 50.1981 44.175 38.15C44.175 37.1882 44.1107 36.2247 43.9858 35.2762C46.1544 33.364 47.5251 30.5667 47.5251 27.4548V27.4548ZM37.0975 13.0096L43.56 22.6031C43.5729 22.6231 43.5866 22.6427 43.6008 22.662C44.6308 24.0569 45.1753 25.7142 45.1753 27.4547C45.1753 31.9087 41.5517 35.5323 37.0975 35.5323C32.6435 35.5323 29.0199 31.9087 29.0199 27.4547C29.0199 25.7142 29.5643 24.0569 30.5943 22.662C30.608 22.6435 30.621 22.6247 30.6336 22.6053L33.9612 17.6655C33.9674 17.6564 33.9737 17.6475 33.9796 17.6382L37.0975 13.0096ZM41.8251 38.15C41.8251 48.9025 33.0772 57.6502 22.3248 57.6502C11.5723 57.6502 2.82465 48.9025 2.82465 38.15C2.82465 33.9505 4.13936 29.9494 6.62684 26.5795C6.64106 26.5604 6.6548 26.5403 6.66808 26.5197L22.325 3.27772L31.5727 17.0054L28.6858 21.291C27.367 23.0877 26.6701 25.2185 26.6701 27.4548C26.6701 33.2045 31.3478 37.8823 37.0975 37.8823C38.7788 37.8823 40.3681 37.4817 41.7758 36.772C41.8079 37.2302 41.8251 37.6903 41.8251 38.15Z" fill="#24B794"/>
<path d="M32.955 27.1683C32.955 26.599 33.071 26.0497 33.2996 25.5354C33.5633 24.9424 33.2962 24.2481 32.7033 23.9845C32.1104 23.7213 31.4161 23.9878 31.1525 24.5808C30.7893 25.3976 30.6052 26.2681 30.6052 27.1683C30.6052 29.3006 31.6645 31.2826 33.4387 32.4697C33.6394 32.604 33.8664 32.6682 34.091 32.6682C34.47 32.6682 34.842 32.4851 35.0685 32.1466C35.4293 31.6073 35.2847 30.8775 34.7454 30.5167C33.6243 29.7665 32.955 28.5148 32.955 27.1683V27.1683Z" fill="#24B794"/>
<path d="M21.7678 53.2625C21.4802 52.5066 20.4071 52.291 19.8516 52.8818C19.1902 53.5227 19.5462 54.6995 20.4531 54.8639C21.3523 55.0609 22.136 54.1066 21.7678 53.2625Z" fill="#24B794"/>
<path d="M36.4786 33.5408C37.2362 34.0655 38.3211 33.4853 38.3056 32.5645C38.3226 31.6434 37.2356 31.0621 36.4786 31.5869C35.7925 32.0169 35.7898 33.1122 36.4786 33.5408Z" fill="#24B794"/>
</svg>
